<?xml version="1.0" encoding="UTF-8" standalone="no"?>
<!-- Created with Inkscape (http://www.inkscape.org/) -->

<svg
   xmlns:dc="http://purl.org/dc/elements/1.1/"
   xmlns:cc="http://creativecommons.org/ns#"
   xmlns:rdf="http://www.w3.org/1999/02/22-rdf-syntax-ns#"
   xmlns:svg="http://www.w3.org/2000/svg"
   xmlns="http://www.w3.org/2000/svg"
   xmlns:sodipodi="http://sodipodi.sourceforge.net/DTD/sodipodi-0.dtd"
   xmlns:inkscape="http://www.inkscape.org/namespaces/inkscape"
   id="svg2"
   version="1.1"
   inkscape:version="0.91 r13725"
   xml:space="preserve"
   width="125"
   height="108.8375"
   viewBox="0 0 125 108.8375"
   sodipodi:docname="UC_symbol.svg"><metadata
     id="metadata8"><rdf:RDF><cc:Work
         rdf:about=""><dc:format>image/svg+xml</dc:format><dc:type
           rdf:resource="http://purl.org/dc/dcmitype/StillImage" /><dc:title></dc:title></cc:Work></rdf:RDF></metadata><defs
     id="defs6" /><sodipodi:namedview
     pagecolor="#ffffff"
     bordercolor="#666666"
     borderopacity="1"
     objecttolerance="10"
     gridtolerance="10"
     guidetolerance="10"
     inkscape:pageopacity="0"
     inkscape:pageshadow="2"
     inkscape:window-width="664"
     inkscape:window-height="480"
     id="namedview4"
     showgrid="false"
     inkscape:zoom="2.1683702"
     inkscape:cx="62.5"
     inkscape:cy="54.418751"
     inkscape:window-x="0"
     inkscape:window-y="23"
     inkscape:window-maximized="0"
     inkscape:current-layer="g12" /><g
     id="g10"
     inkscape:groupmode="layer"
     inkscape:label="ink_ext_XXXXXX"
     transform="matrix(1.25,0,0,-1.25,0,108.8375)"><g
       id="g12"
       transform="scale(0.1,0.1)"><path
         d="m 481.93,821.777 166.879,0 0,48.6914 -166.879,0 0,-48.6914 z"
         style="fill:#e51636;fill-opacity:1;fill-rule:nonzero;stroke:none"
         id="path14"
         inkscape:connector-curvature="0" /><path
         d="M 634.82,48.5352 C 475.859,88.9922 358.691,224.258 358.691,397.66 c 0,132.875 77.672,240.301 192.399,300.531 l 0,65.289 C 386.191,709.484 267.945,570.066 267.945,397.66 c 0,-85.258 22.231,-151.871 60.957,-211.523 C 226.93,204.063 183.004,275.18 183.004,397.66 l 0,473.055 -0.113,0 -182.891,0 0,-48.699 87.4766,0 0,-424.356 C 87.4766,227.648 198.297,139.355 366.992,136.555 431.5,64.8438 522.789,14.7734 626.504,0 l 8.316,48.5352"
         style="fill:#e51636;fill-opacity:1;fill-rule:nonzero;stroke:none"
         id="path16"
         inkscape:connector-curvature="0" /><path
         d="m 551.031,397.66 c 0,-66.797 6.649,-119.609 48.797,-166.105 38.317,47.101 49.133,91.258 49.133,166.105 l -0.363,384.801 c 17.843,2.129 35.988,3.234 54.414,3.234 75.136,0 150.781,-8.23 240.898,-53.578 l 6.129,36.539 49.961,-9.711 -29.414,-171.25 -41.957,8.243 c -3.652,76.933 -71.34,144.042 -184.16,144.042 l 0,-342.32 c 0,-99.801 -34.004,-163.461 -101.406,-213.168 79.707,-74.59 210.164,-66.98 274.414,-34.176 l 11.996,-17.933 C 881.879,99.9844 816.637,86.1914 760.059,86.1914 c -164.801,0 -299.864,136.5666 -299.864,311.4686 0,83.594 34.961,150.809 90.895,204.918 0,0 -0.059,-169.332 -0.059,-204.918"
         style="fill:#e51636;fill-opacity:1;fill-rule:nonzero;stroke:none"
         id="path18"
         inkscape:connector-curvature="0" /></g></g></svg>