<?xml version="1.0" encoding="UTF-8" standalone="no"?>
<!-- Created with Inkscape (http://www.inkscape.org/) -->

<svg
   xmlns:dc="http://purl.org/dc/elements/1.1/"
   xmlns:cc="http://creativecommons.org/ns#"
   xmlns:rdf="http://www.w3.org/1999/02/22-rdf-syntax-ns#"
   xmlns:svg="http://www.w3.org/2000/svg"
   xmlns="http://www.w3.org/2000/svg"
   xmlns:sodipodi="http://sodipodi.sourceforge.net/DTD/sodipodi-0.dtd"
   xmlns:inkscape="http://www.inkscape.org/namespaces/inkscape"
   id="svg2"
   version="1.1"
   inkscape:version="0.91 r13725"
   xml:space="preserve"
   width="500"
   height="217.425"
   viewBox="0 0 500 217.425"
   sodipodi:docname="UC_logo.svg"><metadata
     id="metadata8"><rdf:RDF><cc:Work
         rdf:about=""><dc:format>image/svg+xml</dc:format><dc:type
           rdf:resource="http://purl.org/dc/dcmitype/StillImage" /><dc:title></dc:title></cc:Work></rdf:RDF></metadata><defs
     id="defs6" /><sodipodi:namedview
     pagecolor="#ffffff"
     bordercolor="#666666"
     borderopacity="1"
     objecttolerance="10"
     gridtolerance="10"
     guidetolerance="10"
     inkscape:pageopacity="0"
     inkscape:pageshadow="2"
     inkscape:window-width="664"
     inkscape:window-height="480"
     id="namedview4"
     showgrid="false"
     inkscape:zoom="0.714"
     inkscape:cx="250"
     inkscape:cy="108.7125"
     inkscape:window-x="0"
     inkscape:window-y="23"
     inkscape:window-maximized="0"
     inkscape:current-layer="g10" /><g
     id="g10"
     inkscape:groupmode="layer"
     inkscape:label="ink_ext_XXXXXX"
     transform="matrix(1.25,0,0,-1.25,0,217.425)"><g
       id="g12"
       transform="scale(0.1,0.1)"><path
         d="m 161.008,940.406 -36.047,0 0,-116.183 c 0,-36.11 -15.234,-56.84 -41.7071,-56.84 -29.1601,0 -42.1406,18.211 -42.1406,59.101 l 0,113.922 -41.1133,0 0,-121.222 c 0,-53.575 27.6992,-80.723 82.1914,-80.723 49.0316,0 79.5386,30.172 79.5386,78.773 l 0,123.172 -0.722,0"
         style="fill:#231f20;fill-opacity:1;fill-rule:nonzero;stroke:none"
         id="path14"
         inkscape:connector-curvature="0" /><path
         d="m 398.457,940.406 -32.48,0 c 0,0 0,-137.625 0,-140.078 -37.758,51.461 -75.454,96.395 -111.868,139.871 l -0.121,0.207 -30.133,0 0,-198.551 33.153,0 c 0,0 0,138.684 0,140.973 35.558,-48.687 72.195,-92.695 107.676,-135.301 l 4.75,-5.672 29.648,0 0,198.551 -0.625,0"
         style="fill:#231f20;fill-opacity:1;fill-rule:nonzero;stroke:none"
         id="path16"
         inkscape:connector-curvature="0" /><path
         d="m 505.754,940.406 -40.359,0 0,-198.551 41.015,0 0,198.551 -0.656,0"
         style="fill:#231f20;fill-opacity:1;fill-rule:nonzero;stroke:none"
         id="path18"
         inkscape:connector-curvature="0" /><path
         d="m 749.758,940.406 -37.07,0 -0.153,-0.359 C 693.051,886.98 676.855,841.875 659.348,786.563 641.953,843.895 624.988,892.77 608.57,940 l -0.14,0.406 -44.977,0 74.289,-198.551 33.309,0 79.687,198.551 -0.98,0"
         style="fill:#231f20;fill-opacity:1;fill-rule:nonzero;stroke:none"
         id="path20"
         inkscape:connector-curvature="0" /><path
         d="m 842.672,769.652 c 0,1.223 0,61.149 0,62.395 1.328,0 64.91,0 64.91,0 l 0,27.75 c 0,0 -63.582,0 -64.91,0 0,1.25 0,51.547 0,52.863 1.328,0 66.312,0 66.312,0 l 0,27.746 -107.363,0 0,-198.551 119.488,0 0,27.797 c 0,0 -77.109,0 -78.437,0"
         style="fill:#231f20;fill-opacity:1;fill-rule:nonzero;stroke:none"
         id="path22"
         inkscape:connector-curvature="0" /><path
         d="m 1018.61,912.66 c 1.22,0 19.97,0 19.97,0 7.28,0 30.8,-2.16 30.8,-29.215 0,-13.011 -7.39,-34.882 -35.37,-34.882 0,0 -14.21,0 -15.4,0 0,1.261 0,62.781 0,64.097 z m 58.9,-81.859 c 22.13,13.34 33.01,32.082 33.01,57.429 0,32.708 -23.85,52.176 -63.81,52.176 l -69.054,0 0,-198.551 40.954,0 c 0,0 0,77.618 0,78.875 1.22,0 21.9,0 22.66,0 0.26,-0.687 38.34,-78.953 38.34,-78.953 l 46.86,0 c 0,0 -48.44,88.008 -48.96,89.024"
         style="fill:#231f20;fill-opacity:1;fill-rule:nonzero;stroke:none"
         id="path24"
         inkscape:connector-curvature="0" /><path
         d="m 1248.04,855.18 -5.13,4.07 c -19.66,15.539 -31.61,24.875 -31.61,36.586 0,12.059 10.11,20.164 25.01,20.164 13.21,0 25.36,-6.934 31.52,-11.117 l 0.56,-0.379 14.84,21.57 -0.43,0.406 c -8.67,8.422 -26.5,17.317 -50.37,17.317 -35.46,0 -63.19,-21.297 -63.19,-48.504 0,-25.68 15.4,-38.172 33.41,-52.766 l 1.98,-1.648 9.34,-6.891 c 15.36,-11.039 32.77,-23.539 32.77,-41.054 0,-19.692 -16.2,-26.676 -30.09,-26.676 -17.11,0 -29.1,7.726 -39.99,15.644 l -0.51,0.379 -14.96,-23.554 0.38,-0.321 c 13.45,-12.484 35.29,-19.945 58.47,-19.945 43.12,0 68.81,27.57 68.81,54.195 0,25.09 -14.96,41.899 -40.81,62.524"
         style="fill:#231f20;fill-opacity:1;fill-rule:nonzero;stroke:none"
         id="path26"
         inkscape:connector-curvature="0" /><path
         d="m 1381.25,940.406 -40.36,0 0,-198.551 41.08,0 0,198.551 -0.72,0"
         style="fill:#231f20;fill-opacity:1;fill-rule:nonzero;stroke:none"
         id="path28"
         inkscape:connector-curvature="0" /><path
         d="m 1595.52,940.406 -162.1,0 0,-27.746 c 0,0 59.57,0 60.83,0 0,-1.351 0,-170.805 0,-170.805 l 41.06,0 c 0,0 0,169.454 0,170.805 1.32,0 60.95,0 60.95,0 l 0,27.746 -0.74,0"
         style="fill:#231f20;fill-opacity:1;fill-rule:nonzero;stroke:none"
         id="path30"
         inkscape:connector-curvature="0" /><path
         d="m 1803.78,940.406 -33.58,0 -15.21,-27.312 c -10.41,-18.41 -21.22,-37.387 -31.36,-59.903 -13.21,32.379 -25.39,57.711 -38.32,84.383 l -1.38,2.832 -48.83,0 62.8,-115.648 -0.04,-82.903 41.11,0 0,83.223 c 0.07,0 65.45,114.41 65.45,114.41 l 0.46,0.918 -1.1,0"
         style="fill:#231f20;fill-opacity:1;fill-rule:nonzero;stroke:none"
         id="path32"
         inkscape:connector-curvature="0" /><path
         d="m 2043.8,767.973 c -51.46,0 -55.37,58.164 -55.37,75.988 0,34.004 14.6,70.328 55.37,70.328 40.8,0 55.46,-36.324 55.46,-70.328 0,-17.824 -4,-75.988 -55.46,-75.988 z m 0,175.824 c -56.39,0 -98.95,-42.914 -98.95,-99.836 0,-62.09 40.61,-105.5 98.95,-105.5 58.35,0 99.01,43.41 99.01,105.5 0,56.922 -42.53,99.836 -99.01,99.836"
         style="fill:#231f20;fill-opacity:1;fill-rule:nonzero;stroke:none"
         id="path34"
         inkscape:connector-curvature="0" /><path
         d="m 2287.28,912.66 0,27.746 -106.95,0 0,-198.551 40.98,0 c 0,0 0,78.188 0,79.454 1.33,0 64.87,0 64.87,0 l 0,27.863 c 0,0 -63.54,0 -64.87,0 0,1.238 0,62.172 0,63.488 1.33,0 65.97,0 65.97,0"
         style="fill:#231f20;fill-opacity:1;fill-rule:nonzero;stroke:none"
         id="path36"
         inkscape:connector-curvature="0" /><path
         d="m 896.254,536.461 c 61.523,0 123.026,-27.82 150.096,-50.031 l 32.75,49.281 c -37.68,29.469 -95.147,58.18 -177.127,58.18 -205.86,0 -319.09,-150.942 -319.09,-295.231 C 582.883,140.219 687.086,0 892.113,0 965.969,0 1033.98,26.2891 1072.65,52.4805 l -31.23,47.6405 C 1007.8,77.1289 958.598,57.4805 896.254,57.4805 770.746,57.4805 670.715,155 670.715,300.25 c 0,134.539 83.566,236.211 225.539,236.211"
         style="fill:#231f20;fill-opacity:1;fill-rule:nonzero;stroke:none"
         id="path38"
         inkscape:connector-curvature="0" /><path
         d="m 1531.97,429.809 c -42.65,0 -101.79,-19.68 -140.25,-60.661 l 0,19.661 0.09,0 0,31.121 -0.09,0 0,0.05 -72.98,0 0,-0.05 -33.11,0 0,-31.121 33.11,0 0,-378.93009 73.76,0 0,246.87109 c 0,78.75 53.35,119.012 111.57,119.012 66.46,0 99.25,-40.262 99.25,-117.364 l 0,-248.51909 73.85,0 0,264.05109 c 0,103.441 -50.92,155.879 -145.2,155.879"
         style="fill:#231f20;fill-opacity:1;fill-rule:nonzero;stroke:none"
         id="path40"
         inkscape:connector-curvature="0" /><path
         d="m 1949.33,54.1406 c -99.3,0 -142.8,80.3714 -142.8,165.7114 0,111.57 76.3,155.91 143.61,155.91 30.39,0 60.64,-9.883 84.51,-21.391 l 24.53,41.84 c -30.34,23 -68.07,33.598 -109.85,33.598 -154.21,0 -222.28,-111.489 -222.28,-214.098 C 1727.05,159.16 1751.58,0 1946.01,0 c 35.31,0 83.64,14 123.93,42.6719 l -20.6,41.0195 c -32.01,-20.5 -64.81,-29.5508 -100.01,-29.5508"
         style="fill:#231f20;fill-opacity:1;fill-rule:nonzero;stroke:none"
         id="path42"
         inkscape:connector-curvature="0" /><path
         d="m 2530.51,429.809 c -42.61,0 -101.7,-19.68 -140.26,-60.661 l 0,50.832 -73.05,0 0,-0.05 -33.28,0 0,-31.121 33.28,0 0,-378.93009 73.81,0 0,246.87109 c 0,78.75 53.31,119.012 111.6,119.012 66.45,0 99.25,-40.262 99.25,-117.364 l 0,-248.51909 73.8,0 0,264.05109 c 0,103.441 -50.89,155.879 -145.15,155.879"
         style="fill:#231f20;fill-opacity:1;fill-rule:nonzero;stroke:none"
         id="path44"
         inkscape:connector-curvature="0" /><path
         d="m 2968.5,429.809 c -42.71,0 -101.76,-19.68 -140.27,-60.661 l 0,50.832 -73.01,0 0,-0.05 -33.22,0 0,-31.121 33.22,0 0,-378.93009 73.83,0 0,246.87109 c 0,78.75 53.27,119.012 111.56,119.012 66.39,0 99.3,-40.262 99.3,-117.364 l 0,-248.51909 73.81,0 0,264.05109 c 0,103.441 -50.85,155.879 -145.22,155.879"
         style="fill:#231f20;fill-opacity:1;fill-rule:nonzero;stroke:none"
         id="path46"
         inkscape:connector-curvature="0" /><path
         d="m 3953.18,505.32 c 36.05,0 46.82,27.852 46.82,49.981 0,20.469 -17.26,43.539 -46.82,43.539 -29.55,0 -46.72,-23.07 -46.72,-43.539 0,-22.129 10.67,-49.981 46.72,-49.981"
         style="fill:#231f20;fill-opacity:1;fill-rule:nonzero;stroke:none"
         id="path48"
         inkscape:connector-curvature="0" /><path
         d="m 3990.54,419.648 -106.2,0 0,-31.128 32.58,0 0,-379.16062 73.72,0 0,410.06262 -0.1,0 0,0.226"
         style="fill:#231f20;fill-opacity:1;fill-rule:nonzero;stroke:none"
         id="path50"
         inkscape:connector-curvature="0" /><path
         d="m 3486.14,92.5898 c -42.63,-22.5507 -78.13,-36.9687 -114.59,-36.9687 -79.03,0 -132.27,57.8009 -132.27,155.4299 0,99.34 58.65,163.488 145.58,163.488 31.12,0 64.83,-9.027 101.28,-27.039 l 0,-254.9102 z m 0,317.2112 c -39.07,12.578 -74.55,19.89 -109.18,19.89 -127.92,0 -209.64,-87.652 -209.64,-216.89 0,-126.4612 79.08,-211.44944 190.07,-211.44944 43.52,0 86.97,14.52734 134.07,41.57034 2.68,-14.4414 0.4,-17.9531 5.69,-31.461 l 59.16,0 0,408.5981 -68.61,-0.219 -1.56,-10.039"
         style="fill:#231f20;fill-opacity:1;fill-rule:nonzero;stroke:none"
         id="path52"
         inkscape:connector-curvature="0" /><path
         d="m 3786.53,57.1719 c -44.65,0 -56,34.0976 -56,90.9571 l 0,229.793 106.35,0 0,42.219 -106.35,0 0,121.839 -73.14,-24.39 0,-97.449 -56.76,0 0,-42.219 56.76,0 0,-243.563 c 0,-82.8199 39,-129.91759 120.22,-129.91759 27.58,0 57.62,9.73049 82.8,25.98049 l -17.82,40.6289 c -13.84,-7.3711 -29.26,-13.8789 -56.06,-13.8789"
         style="fill:#231f20;fill-opacity:1;fill-rule:nonzero;stroke:none"
         id="path54"
         inkscape:connector-curvature="0" /><path
         d="m 2183.93,505.32 c 36.1,0 46.73,27.852 46.73,49.981 0,20.469 -17.18,43.539 -46.73,43.539 -29.56,0 -46.77,-23.07 -46.77,-43.539 0,-22.129 10.7,-49.981 46.77,-49.981"
         style="fill:#231f20;fill-opacity:1;fill-rule:nonzero;stroke:none"
         id="path56"
         inkscape:connector-curvature="0" /><path
         d="m 2221.31,419.648 -106.21,0 0,-31.128 32.54,0 0,-379.16062 73.77,0 0,410.06262 -0.1,0 0,0.226"
         style="fill:#231f20;fill-opacity:1;fill-rule:nonzero;stroke:none"
         id="path58"
         inkscape:connector-curvature="0" /><path
         d="m 1185.31,505.32 c 36.15,0 46.83,27.852 46.83,49.981 0,20.469 -17.25,43.539 -46.83,43.539 -29.48,0 -46.75,-23.07 -46.75,-43.539 0,-22.129 10.69,-49.981 46.75,-49.981"
         style="fill:#231f20;fill-opacity:1;fill-rule:nonzero;stroke:none"
         id="path60"
         inkscape:connector-curvature="0" /><path
         d="m 1222.72,419.648 -106.24,0 0,-31.128 32.54,0 0,-379.16062 73.8,0 0,410.06262 -0.1,0 0,0.226"
         style="fill:#231f20;fill-opacity:1;fill-rule:nonzero;stroke:none"
         id="path62"
         inkscape:connector-curvature="0" /><path
         d="m 3046.25,1673.33 225.109,0 0,65.6836 -225.109,0 0,-65.6836 z"
         style="fill:#e51636;fill-opacity:1;fill-rule:nonzero;stroke:none"
         id="path64"
         inkscape:connector-curvature="0" /><path
         d="m 3252.49,630.102 c -214.45,54.609 -372.55,237.093 -372.55,471.038 0,179.27 104.79,324.19 259.59,405.46 l 0,88.08 c -222.49,-72.86 -382,-260.93 -382,-493.54 0,-115.015 29.98,-204.886 82.24,-285.382 -137.56,24.172 -196.85,120.137 -196.85,285.382 l 0,638.22 -0.16,0 -246.72,0 0,-65.71 117.99,0 0,-572.51 c 0,-229.374 149.51,-348.499 377.1,-352.269 87.04,-96.762 210.21,-164.301 350.14,-184.25 l 11.22,65.481"
         style="fill:#e51636;fill-opacity:1;fill-rule:nonzero;stroke:none"
         id="path66"
         inkscape:connector-curvature="0" /><path
         d="m 3139.45,1101.14 c 0,-90.12 8.98,-161.374 65.84,-224.109 51.68,63.555 66.27,123.129 66.27,224.109 l -0.48,519.14 c 24.07,2.88 48.55,4.36 73.41,4.36 101.39,0 203.44,-11.09 325.03,-72.26 l 8.24,49.29 67.41,-13.11 -39.66,-231.04 -56.64,11.13 c -4.91,103.79 -96.23,194.34 -248.46,194.34 l 0,-461.85 c 0,-134.64 -45.87,-220.531 -136.78,-287.605 107.53,-100.625 283.53,-90.344 370.23,-46.105 l 16.19,-24.2 c -64.24,-43.679 -152.27,-62.32 -228.59,-62.32 -222.34,0 -404.58,184.262 -404.58,420.23 0,112.79 47.2,203.47 122.65,276.45 0,0 -0.08,-228.43 -0.08,-276.45"
         style="fill:#e51636;fill-opacity:1;fill-rule:nonzero;stroke:none"
         id="path68"
         inkscape:connector-curvature="0" /></g></g></svg>